<svg width="600" height="460" viewBox="0 0 600 460" fill="none" xmlns="http://www.w3.org/2000/svg">
<rect x="0.5" y="0.5" width="599" height="459" rx="23.5" fill="#18181B"/>
<rect x="0.5" y="0.5" width="599" height="459" rx="23.5" stroke="#3F3F46"/>
<circle cx="30" cy="30" r="6" fill="#FF5F56"/>
<circle cx="50" cy="30" r="6" fill="#FFBD2E"/>
<circle cx="70" cy="30" r="6" fill="#27C93F"/>
<rect x="376" y="24" width="200" height="24" rx="6" fill="#09090B"/>
<rect opacity="0.15" x="24" y="72" width="352" height="80" rx="12" fill="url(#paint0_linear_426_169)"/>
<rect x="24.5" y="168.5" width="351" height="159" rx="11.5" fill="#27272A" stroke="#3F3F46"/>
<rect opacity="0.6" x="396" y="72" width="180" height="24" rx="6" fill="#27272A"/>
<rect opacity="0.6" x="396" y="108" width="180" height="24" rx="6" fill="#27272A"/>
<rect opacity="0.6" x="396" y="144" width="180" height="24" rx="6" fill="#27272A"/>
<rect opacity="0.6" x="396" y="180" width="180" height="24" rx="6" fill="#27272A"/>
<rect opacity="0.6" x="396" y="216" width="180" height="24" rx="6" fill="#27272A"/>
<rect opacity="0.6" x="396" y="252" width="180" height="24" rx="6" fill="#27272A"/>
<rect opacity="0.6" x="396" y="288" width="180" height="24" rx="6" fill="#27272A"/>
<rect opacity="0.6" x="396" y="324" width="180" height="24" rx="6" fill="#27272A"/>
<defs>
<linearGradient id="paint0_linear_426_169" x1="24" y1="112" x2="376" y2="112" gradientUnits="userSpaceOnUse">
<stop stop-color="#22D3EE"/>
<stop offset="1" stop-color="#A855F7"/>
</linearGradient>
</defs>
</svg>
